:SAMPLES-PER-SECOND 30
:FULLY-SPECIFIED
:DEGREES
365
root  3.96561 35.3698 0.633537 -53.1118 -73.9735 58.9759
RightUpLeg  -22.7233 -18.1186 -41.0256
RightLeg  29.9022 2.31229 1.21539
RightFoot  -1.30083 -2.63089 29.2474
RightToes  -2.32832e-010 0 -3.6325e-017
Spine  26.881 6.0304 13.1588
Spine1  -4.77588 12.5613 -24.9293
HEad  -31.6772 -32.3436 0.884385
LeftShoulder1  2.01439 -3.91915 -20.7319
LeftArm  -7.67543 28.9797 -46.7737
LeftForeArm  26.894 1.74849 -14.1499
LeftHand  -0.293019 -2.88195 4.42302
RightShoulder  1.73137 4.31183 15.4155
RightArm  -30.866 16.5299 60.4272
RightForeArm  -17.8345 35.0991 8.85356
RightHand  -1.98344 4.07406 -24.2729
LeftUpLeg  -21.3036 8.83524 9.05961
LeftLeg  26.7174 0.125153 0.431229
LeftFoot  -5.15611 1.72947 -30.7551
LeftToes  2.2737e-010 4.38529e-011 2.18788e-011
366
root  3.98238 35.5822 0.789519 -58.3788 -72.4275 66.231
RightUpLeg  -23.9699 -16.686 -43.1566
RightLeg  27.7931 0.625927 0.134875
RightFoot  -0.17661 -2.85249 28.6
RightToes  -2.32832e-010 0 -3.6325e-017
Spine  25.6321 5.57371 13.4544
Spine1  -5.10414 12.597 -29.3829
HEad  -30.6832 -32.4739 0.604399
LeftShoulder1  1.87883 -3.35723 -20.9959
LeftArm  -8.70841 28.4429 -45.478
LeftForeArm  25.1711 2.45201 -13.8617
LeftHand  -0.430297 -1.01999 7.89448
RightShoulder  1.75464 4.58813 14.8954
RightArm  -27.3829 15.4697 62.6302
RightForeArm  -14.9717 36.0172 8.98648
RightHand  -1.79085 4.07336 -21.938
LeftUpLeg  -21.0657 12.5773 5.68084
LeftLeg  23.0485 -2.03969 -0.625207
LeftFoot  -3.80457 2.10475 -30.8916
LeftToes  2.2737e-010 4.38529e-011 2.18788e-011
367
root  3.90938 35.775 0.682778 -58.0449 -72.1369 67.2188
RightUpLeg  -24.416 -16.0427 -43.13
RightLeg  26.5667 -0.69221 -0.5988
RightFoot  0.226987 -2.96701 28.7315
RightToes  -2.32832e-010 0 -3.6325e-017
Spine  24.1202 5.52377 13.3374
Spine1  -4.73776 12.5514 -30.1259
HEad  -30.6916 -32.4402 0.0347055
LeftShoulder1  1.83822 -3.06284 -21.6341
LeftArm  -8.51163 27.8209 -45.2077
LeftForeArm  25.7301 2.49773 -13.8674
LeftHand  -0.532907 -0.387222 10.7789
RightShoulder  1.8255 4.76785 15.3203
RightArm  -25.1875 15.0167 63.5766
RightForeArm  -13.6679 37.2882 9.31127
RightHand  -1.43044 3.69421 -18.4059
LeftUpLeg  -20.5968 13.0056 5.12501
LeftLeg  19.6297 -1.94424 -0.554702
LeftFoot  -2.56537 2.51757 -31.8297
LeftToes  2.2737e-010 4.38529e-011 2.18788e-011
368
root  3.82686 35.9387 0.378366 -52.8156 -73.1208 61.7075
RightUpLeg  -23.2951 -16.5063 -40.9683
RightLeg  25.9735 -0.901296 -0.698102
RightFoot  0.220651 -3.05982 29.6081
RightToes  -2.32832e-010 0 -3.6325e-017
Spine  23.6543 5.70904 13.4342
Spine1  -4.43043 12.4123 -27.8165
HEad  -30.8155 -32.6447 -0.584708
LeftShoulder1  1.86317 -3.18218 -21.5078
LeftArm  -8.08419 27.4921 -46.3774
LeftForeArm  26.1001 2.34464 -14.0645
LeftHand  -0.527761 -1.13007 9.59307
RightShoulder  1.90386 4.89137 15.9879
RightArm  -25.0599 14.1029 63.8209
RightForeArm  -14.6055 38.7052 9.81541
RightHand  -1.28113 3.44162 -16.9895
LeftUpLeg  -19.5328 11.1455 7.5148
LeftLeg  17.4666 -0.593316 -0.0710488
LeftFoot  -1.78884 2.81046 -32.6787
LeftToes  2.2737e-010 4.38529e-011 2.18788e-011
369
root  3.77461 36.091 0.0765871 -41.1043 -74.6758 48.7247
RightUpLeg  -20.8149 -17.8595 -37.0914
RightLeg  25.1388 -0.635845 -0.544383
RightFoot  0.342002 -3.17068 30.335
RightToes  -2.32832e-010 0 -3.6325e-017
Spine  23.7353 5.92023 14.6279
Spine1  -4.61943 12.1304 -23.5081
HEad  -29.9047 -33.0657 -1.36883
LeftShoulder1  1.85154 -3.33734 -20.647
LeftArm  -7.58704 27.9468 -48.5591
LeftForeArm  24.9283 1.68929 -14.364
LeftHand  -0.353237 -2.6981 5.29236
RightShoulder  1.96356 4.98153 16.4938
RightArm  -26.5894 12.7567 63.2613
RightForeArm  -16.6433 39.8801 10.3174
RightHand  -1.34798 3.61952 -17.4987
LeftUpLeg  -19.0207 9.75698 11.5476
LeftLeg  17.0848 -0.845427 0.102999
LeftFoot  -1.56979 2.81491 -32.0298
LeftToes  2.2737e-010 4.38529e-011 2.18788e-011
370
root  3.73464 36.211 -0.0419682 -25.9308 -75.1508 32.4879
RightUpLeg  -18.0826 -18.6741 -33.3913
RightLeg  23.9079 -1.39879 -0.893222
RightFoot  0.747353 -3.29761 30.5041
RightToes  -2.32832e-010 0 -3.6325e-017
Spine  23.0563 6.04441 16.4775
Spine1  -4.48254 11.7955 -18.8536
HEad  -28.8082 -33.6734 -1.93858
LeftShoulder1  1.78424 -3.1868 -20.2269
LeftArm  -4.89435 28.8149 -50.4011
LeftForeArm  22.9914 -0.85851 -14.7529
LeftHand  -0.0681087 -4.03184 1.10002
RightShoulder  1.98333 4.89582 17.011
RightArm  -29.06 12.1344 61.2404
RightForeArm  -18.3439 40.7879 10.7242
RightHand  -1.40967 4.12561 -17.356
LeftUpLeg  -19.8972 8.17902 15.4199
LeftLeg  18.3746 -1.41453 -0.142629
LeftFoot  -1.81332 2.52717 -29.5657
LeftToes  2.2737e-010 4.38529e-011 2.18788e-011
371
root  3.68551 36.2999 0.0941446 -17.6834 -73.9618 23.7711
RightUpLeg  -15.6205 -17.5855 -32.3479
RightLeg  22.4234 -3.89305 -1.97284
RightFoot  1.46411 -3.51449 30.7042
RightToes  -2.32832e-010 0 -3.6325e-017
Spine  21.4975 6.02362 18.0929
Spine1  -3.00928 11.6663 -16.4533
HEad  -28.7644 -34.8825 -1.98141
LeftShoulder1  1.72528 -2.87738 -20.6174
LeftArm  3.59176 29.3259 -50.8424
LeftForeArm  17.7544 -6.81589 -14.2205
LeftHand  0.170909 -5.14807 -1.57105
RightShoulder  1.9393 4.58209 17.4156
RightArm  -32.5979 12.4674 58.0609
RightForeArm  -20.2124 41.937 11.2409
RightHand  -1.27418 4.24747 -15.5022
LeftUpLeg  -21.432 6.7469 16.4009
LeftLeg  20.4438 -1.47094 -0.277634
LeftFoot  -2.15402 2.15944 -26.2983
LeftToes  2.2737e-010 4.38529e-011 2.18788e-011
372
root  3.63863 36.3924 0.468615 -22.2733 -72.4203 28.2678
RightUpLeg  -13.4301 -15.0044 -35.1687
RightLeg  20.264 -6.88126 -3.00684
RightFoot  2.76532 -3.97367 31.4983
RightToes  -2.32832e-010 0 -3.6325e-017
Spine  20.3849 5.94671 19.3407
Spine1  -1.02442 12.3092 -18.7775
HEad  -28.6052 -36.9071 -1.9506
LeftShoulder1  1.72615 -2.8148 -20.9181
LeftArm  17.5118 29.8209 -49.5793
LeftForeArm  4.25843 -15.6195 -10.4152
LeftHand  0.362633 -6.3111 -3.25678
RightShoulder  1.8413 4.23795 17.1987
RightArm  -37.4812 12.3401 54.8946
RightForeArm  -24.7758 43.418 12.0331
RightHand  -0.97109 3.06235 -13.5301
LeftUpLeg  -21.7459 6.49155 13.3209
LeftLeg  21.5966 -0.99087 -0.0996047
LeftFoot  -2.28036 1.95909 -24.2283
LeftToes  2.2737e-010 4.38529e-011 2.18788e-011
373
root  3.64216 36.445 1.03184 -37.8012 -71.3091 44.0148
RightUpLeg  -12.6223 -12.4257 -41.0357
RightLeg  17.3245 -8.09028 -3.0588
RightFoot  4.67862 -4.62728 32.3035
RightToes  -2.32832e-010 0 -3.6325e-017
Spine  21.2119 6.15015 19.9918
Spine1  -0.912318 14.0155 -25.7504
HEad  -26.2173 -38.8578 -2.47801
LeftShoulder1  1.7294 -2.90479 -20.5588
LeftArm  24.2122 31.4426 -46.2854
LeftForeArm  -9.46118 -23.6999 -5.66619
LeftHand  0.480061 -6.8031 -4.22981
RightShoulder  1.71075 4.01671 16.0692
RightArm  -42.6728 11.0695 52.5477
RightForeArm  -31.8552 43.9226 12.5569
RightHand  -0.734837 0.880411 -13.7604
LeftUpLeg  -19.9696 8.81837 7.28013
LeftLeg  20.8756 -0.718168 0.0529633
LeftFoot  -2.42137 1.98203 -24.8745
LeftToes  2.2737e-010 4.38529e-011 2.18788e-011
374
root  3.73727 36.3312 1.67636 -59.5828 -69.7302 66.2388
RightUpLeg  -14.9953 -10.9218 -47.7462
RightLeg  15.2753 -6.33816 -2.22854
RightFoot  6.48874 -5.04287 31.6864
RightToes  -2.32832e-010 0 -3.6325e-017
Spine  24.0562 6.68251 19.1447
Spine1  -3.44476 15.7389 -34.2101
HEad  -22.6962 -39.0628 -3.30601
LeftShoulder1  1.62358 -2.56025 -20.3422
LeftArm  14.207 34.0767 -41.2847
LeftForeArm  -10.6873 -30.1553 -7.07522
LeftHand  0.366951 -5.7038 -3.48629
RightShoulder  1.53274 3.82149 14.0583
RightArm  -46.4344 10.7265 51.1671
RightForeArm  -35.1123 41.9453 11.9238
RightHand  -0.70154 -0.340131 -16.0525
LeftUpLeg  -17.3084 13.7349 0.742308
LeftLeg  19.5109 -0.947396 -0.329222
LeftFoot  -3.14656 2.01944 -27.4744
LeftToes  2.2737e-010 4.38529e-011 2.18788e-011
375
root  3.90125 36.0505 2.16964 -77.8654 -67.0966 84.9131
RightUpLeg  -20.043 -9.74672 -52.6572
RightLeg  16.0393 -3.95814 -1.47359
RightFoot  7.39641 -4.8709 29.2316
RightToes  -2.32832e-010 0 -3.6325e-017
Spine  26.7175 6.77413 16.9017
Spine1  -6.00333 16.0689 -40.4181
HEad  -21.9016 -36.7279 -3.43069
LeftShoulder1  1.49013 -1.88724 -21.261
LeftArm  3.8278 36.1264 -37.1628
LeftForeArm  -12.7329 -35.6948 -8.75359
LeftHand  -0.0260355 -3.15241 0.654345
RightShoulder  1.33384 3.56572 11.7881
RightArm  -47.5672 13.7179 50.2634
RightForeArm  -28.4011 38.1608 10.294
RightHand  -0.875908 0.268472 -17.9695
LeftUpLeg  -15.5914 18.0594 -3.4539
LeftLeg  19.3845 -0.394054 -1.51451
LeftFoot  -4.41635 1.85835 -29.6394
LeftToes  2.2737e-010 4.38529e-011 2.18788e-011
376
root  4.03936 35.826 2.22682 -85.1045 -65.538 92.3818
RightUpLeg  -24.3002 -8.62926 -54.1317
RightLeg  19.0392 -3.44147 -1.53333
RightFoot  7.29606 -4.41299 26.7451
RightToes  -2.32832e-010 0 -3.6325e-017
Spine  26.9875 5.54401 14.5689
Spine1  -5.99691 14.8049 -42.7151
HEad  -25.0531 -32.709 -2.37695
LeftShoulder1  1.58226 -1.94174 -22.7292
LeftArm  -5.76437 35.1134 -35.7649
LeftForeArm  -13.5452 -37.0103 -9.20707
LeftHand  -0.387767 -0.156219 8.23697
RightShoulder  1.23532 3.47935 10.4776
RightArm  -45.071 18.6916 48.8941
RightForeArm  -13.5071 34.9359 8.58194
RightHand  -1.15745 1.59687 -19.253
LeftUpLeg  -15.2807 19.9783 -4.49049
LeftLeg  19.929 0.151189 -2.48188
LeftFoot  -5.051 1.7255 -30.1931
LeftToes  2.2737e-010 4.38529e-011 2.18788e-011
377
root  4.06929 35.8288 1.75176 -82.286 -66.7691 89.5037
RightUpLeg  -25.3298 -8.46885 -52.1349
RightLeg  22.3682 -4.2061 -2.10753
RightFoot  6.40256 -4.13923 26.3819
RightToes  -2.32832e-010 0 -3.6325e-017
Spine  25.5851 3.46337 12.5635
Spine1  -4.5199 12.3761 -41.3449
HEad  -29.177 -28.4825 -0.267716
LeftShoulder1  1.93825 -3.14594 -22.8946
LeftArm  -10.463 30.523 -36.8401
LeftForeArm  -12.4844 -32.9784 -7.99303
LeftHand  -0.376334 2.63651 15.5783
RightShoulder  1.28365 3.68017 10.6671
RightArm  -38.6998 21.4543 46.6677
RightForeArm  1.88955 33.2752 7.28524
RightHand  -1.30388 1.80055 -21.0726
LeftUpLeg  -15.3496 17.6485 -2.38809
LeftLeg  19.3079 1.62724 -2.00359
LeftFoot  -4.17182 1.95992 -30.2193
LeftToes  2.2737e-010 4.38529e-011 2.18788e-011
